<svg width="256" height="256" viewBox="0 0 256 256" xmlns="http://www.w3.org/2000/svg">
  <defs>
    <linearGradient id="bgGrad" x1="0" y1="0" x2="1" y2="1">
      <stop offset="0%" stop-color="#e0855f"/>
      <stop offset="100%" stop-color="#c96442"/>
    </linearGradient>
  </defs>

  <rect x="0" y="0" width="256" height="256" rx="56" fill="url(#bgGrad)"/>

  <rect x="56" y="76" width="144" height="120" rx="16" fill="#faf0ec"/>

  <path d="M56 92 a16 16 0 0 1 16-16 h112 a16 16 0 0 1 16 16 v18 H56 Z" fill="#1f1f1f"/>

  <rect x="86" y="52" width="14" height="34" rx="7" fill="#1f1f1f"/>
  <rect x="156" y="52" width="14" height="34" rx="7" fill="#1f1f1f"/>

  <circle cx="88"  cy="130" r="7" fill="#c96442"/>
  <circle cx="128" cy="130" r="7" fill="#c96442" opacity="0.55"/>
  <circle cx="168" cy="130" r="7" fill="#c96442" opacity="0.55"/>

  <circle cx="88"  cy="160" r="7" fill="#c96442" opacity="0.55"/>
  <circle cx="128" cy="160" r="7" fill="#c96442"/>
  <circle cx="168" cy="160" r="7" fill="#c96442" opacity="0.55"/>

  <circle cx="178" cy="176" r="20" fill="#1f1f1f"/>
  <path d="M170 176 l6 6 l12 -13" stroke="#faf0ec" stroke-width="5" fill="none" stroke-linecap="round" stroke-linejoin="round"/>
</svg>
